<svg width="20" height="20" viewBox="0 0 20 20" fill="none" xmlns="http://www.w3.org/2000/svg">
<path d="M14.3333 0H1.5C1.10218 0 0.720644 0.158035 0.43934 0.43934C0.158035 0.720644 0 1.10218 0 1.5L0 10.184C0 10.5818 0.158035 10.9634 0.43934 11.2447C0.720644 11.526 1.10218 11.684 1.5 11.684H2.16553L1.62061 13.9046C1.59639 14.0032 1.60277 14.1068 1.63891 14.2017C1.67505 14.2966 1.73923 14.3783 1.82292 14.4358C1.9066 14.4933 2.00582 14.524 2.10736 14.5237C2.20891 14.5235 2.30797 14.4923 2.39136 14.4344L6.35083 11.684H14.3333C14.7311 11.684 15.1126 11.526 15.3939 11.2447C15.6752 10.9634 15.8333 10.5818 15.8333 10.184V1.5C15.8333 1.10218 15.6752 0.720644 15.3939 0.43934C15.1126 0.158035 14.7311 0 14.3333 0ZM14.3328 10.1838H5.88062L3.70776 11.6931L4.07788 10.1838H1.49976V1.49975H14.3328V10.1838Z" fill="black"/>
<path d="M18.3794 19.3791L17.8345 17.1585H18.5C18.8978 17.1585 19.2794 17.0005 19.5607 16.7191C19.842 16.4378 20 16.0563 20 15.6585V6.97449C20 6.57666 19.842 6.19513 19.5607 5.91383C19.2794 5.63252 18.8978 5.47449 18.5 5.47449H16.6667V6.97428H18.5002V15.6584H15.9221L16.2922 17.1676L14.1194 15.6584H5.66724V13.1739L4.16675 14.2161V15.6585C4.16675 16.0563 4.32478 16.4378 4.60609 16.7191C4.88739 17.0005 5.26892 17.1585 5.66675 17.1585H13.6492L17.6086 19.9088C17.692 19.9668 17.7911 19.998 17.8926 19.9982C17.9942 19.9985 18.0934 19.9678 18.1771 19.9103C18.2608 19.8528 18.325 19.7711 18.3611 19.6762C18.3972 19.5813 18.4036 19.4777 18.3794 19.3791Z" fill="black"/>
</svg>
