<svg width="36" height="36" viewBox="0 0 36 36" fill="none" xmlns="http://www.w3.org/2000/svg">
<path d="M13 8C12.0111 8 11.0444 8.29324 10.2221 8.84265C9.3999 9.39206 8.75904 10.173 8.3806 11.0866C8.00216 12.0002 7.90315 13.0055 8.09608 13.9754C8.289 14.9454 8.7652 15.8363 9.46446 16.5355C10.1637 17.2348 11.0546 17.711 12.0246 17.9039C12.9945 18.0968 13.9998 17.9978 14.9134 17.6194C15.827 17.241 16.6079 16.6001 17.1573 15.7779C17.7068 14.9556 18 13.9889 18 13C18 11.6739 17.4732 10.4021 16.5355 9.46446C15.5979 8.52678 14.3261 8 13 8ZM13 16C12.4067 16 11.8266 15.8241 11.3333 15.4944C10.8399 15.1648 10.4554 14.6962 10.2284 14.148C10.0013 13.5999 9.94189 12.9967 10.0576 12.4147C10.1734 11.8328 10.4591 11.2982 10.8787 10.8787C11.2982 10.4591 11.8328 10.1734 12.4147 10.0576C12.9967 9.94189 13.5999 10.0013 14.148 10.2284C14.6962 10.4554 15.1648 10.8399 15.4944 11.3333C15.8241 11.8266 16 12.4067 16 13C16 13.7956 15.6839 14.5587 15.1213 15.1213C14.5587 15.6839 13.7957 16 13 16Z" fill="black"/>
<path d="M25.6006 8.98632L8.98828 25.5986C8.59779 25.9891 8.5978 26.6222 8.98828 27.0127L8.98829 27.0127C9.37877 27.4032 10.0119 27.4032 10.4023 27.0127L27.0146 10.4004C27.4051 10.0099 27.4051 9.37681 27.0146 8.98632C26.6241 8.59584 25.9911 8.59584 25.6006 8.98632Z" fill="black"/>
<path d="M23 18C22.0111 18 21.0444 18.2932 20.2221 18.8427C19.3999 19.3921 18.759 20.1729 18.3806 21.0866C18.0022 22.0002 17.9032 23.0055 18.0961 23.9754C18.289 24.9454 18.7652 25.8363 19.4645 26.5355C20.1637 27.2348 21.0546 27.711 22.0246 27.9039C22.9945 28.0968 23.9998 27.9978 24.9134 27.6194C25.827 27.241 26.6079 26.6001 27.1573 25.7778C27.7068 24.9556 28 23.9889 28 23C28 21.6739 27.4732 20.4021 26.5355 19.4645C25.5979 18.5268 24.3261 18 23 18ZM23 26C22.4067 26 21.8266 25.8241 21.3333 25.4944C20.8399 25.1648 20.4554 24.6962 20.2284 24.148C20.0013 23.5999 19.9419 22.9967 20.0576 22.4147C20.1734 21.8328 20.4591 21.2982 20.8787 20.8787C21.2982 20.4591 21.8328 20.1734 22.4147 20.0576C22.9967 19.9419 23.5999 20.0013 24.148 20.2284C24.6962 20.4554 25.1648 20.8399 25.4944 21.3333C25.8241 21.8266 26 22.4067 26 23C26 23.7956 25.6839 24.5587 25.1213 25.1213C24.5587 25.6839 23.7957 26 23 26Z" fill="black"/>
<path fill-rule="evenodd" clip-rule="evenodd" d="M18 34C26.8366 34 34 26.8366 34 18C34 9.16344 26.8366 2 18 2C9.16344 2 2 9.16344 2 18C2 26.8366 9.16344 34 18 34ZM18 36C27.9411 36 36 27.9411 36 18C36 8.05887 27.9411 0 18 0C8.05887 0 0 8.05887 0 18C0 27.9411 8.05887 36 18 36Z" fill="black"/>
</svg>
