<svg width="48" height="48" viewBox="0 0 48 48" fill="none" xmlns="http://www.w3.org/2000/svg">
<path fill-rule="evenodd" clip-rule="evenodd" d="M27.7133 37.0568C27.4378 37.0474 27.1622 37.0139 26.8896 36.956C26.6789 36.919 26.4776 36.8406 26.2975 36.7251C26.1174 36.6097 25.962 36.4596 25.8404 36.2836C25.7188 36.1075 25.6334 35.9091 25.5892 35.6998C25.545 35.4905 25.5428 35.2745 25.5828 35.0643C25.7087 34.3329 25.8586 33.6071 26.0323 32.8869C26.2343 32.05 26.4494 31.2163 26.6645 30.3825C26.7615 30.0069 26.8584 29.6313 26.9541 29.2554C27.0744 28.7829 27.1959 28.3106 27.3173 27.8383C27.6205 26.6589 27.9236 25.4796 28.2101 24.2962C28.4598 23.3034 28.4578 22.264 28.2043 21.2722C27.9375 20.4281 27.4325 19.6791 26.75 19.1153C26.0676 18.5515 25.2367 18.1969 24.3575 18.0942C23.4016 17.9882 22.4346 18.0494 21.4997 18.2752C20.5906 18.4616 19.6941 18.7026 18.8151 18.9968C18.233 19.1916 17.6587 19.4096 17.0933 19.6506C17.0466 19.6739 17.005 19.7063 16.9709 19.7458C16.9367 19.7854 16.9107 19.8313 16.8944 19.8809C16.8212 20.1497 16.764 20.4231 16.7069 20.6963C16.6935 20.7608 16.68 20.8254 16.6663 20.8899C16.6436 20.9963 16.6219 21.103 16.5998 21.2135C16.5968 21.2287 16.5937 21.244 16.5907 21.2594C16.5795 21.3156 16.5681 21.3728 16.5565 21.4316C16.5386 21.5221 16.52 21.6162 16.5 21.7157C16.5438 21.6971 16.5817 21.6813 16.6155 21.6672C16.6782 21.6411 16.7273 21.6207 16.7756 21.5986C17.0874 21.4285 17.4145 21.2932 17.751 21.1936C17.7844 21.1837 17.8179 21.1742 17.8514 21.165C17.8676 21.1606 17.8838 21.1562 17.9 21.152C17.9 21.152 17.9 21.152 17.9 21.152C18.0865 21.103 18.2756 21.0648 18.4663 21.0377C18.4781 21.036 18.4899 21.0343 18.5018 21.0327C18.5625 21.0245 18.6234 21.0174 18.6844 21.0115C18.847 20.9956 19.0105 20.9876 19.1744 20.9877C19.4507 20.9878 19.728 21.0109 20.0034 21.0573C20.2304 21.0781 20.4505 21.1466 20.6492 21.2584C20.8478 21.3702 21.0206 21.5227 21.1563 21.7059C21.2919 21.8891 21.3873 22.0989 21.4361 22.3216C21.485 22.5443 21.4863 22.7747 21.4399 22.9979C21.3704 23.5109 21.2721 24.0195 21.1456 24.5214C20.8479 25.7527 20.5347 26.9802 20.2209 28.2075C20.1983 28.2958 20.1758 28.384 20.1532 28.4723C19.7619 30.0032 19.3705 31.5342 18.9659 33.0616C18.6841 34.0251 18.5851 35.0329 18.6742 36.0329C18.7394 36.8278 19.0418 37.5847 19.5424 38.2056C20.0146 38.7851 20.6138 39.2483 21.2935 39.5594C21.9733 39.8706 22.7154 40.0213 23.4627 39.9999C24.4832 39.9898 25.4973 39.8365 26.4753 39.5446C26.9985 39.3943 27.5171 39.2285 28.0344 39.0577C28.2818 38.9759 28.529 38.893 28.7761 38.8101C29.1137 38.6969 29.4512 38.5837 29.7896 38.4735C29.8912 38.4514 29.9831 38.3973 30.0516 38.319C30.1202 38.2408 30.1617 38.1426 30.1701 38.0389C30.1845 37.9069 30.215 37.7767 30.2454 37.6465C30.2583 37.5916 30.2711 37.5368 30.2827 37.4818C30.2949 37.4245 30.307 37.3673 30.3192 37.3098C30.3258 37.2785 30.3325 37.247 30.3392 37.2155C30.3747 37.0481 30.4108 36.8781 30.4486 36.7004C30.4741 36.5802 30.5004 36.4564 30.5278 36.3276C30.4578 36.358 30.3939 36.386 30.3341 36.4123C30.2143 36.4649 30.1107 36.5104 30.0062 36.5536C29.8178 36.6484 29.6242 36.7301 29.4267 36.7985C29.3718 36.8175 29.3167 36.8354 29.2613 36.8524C29.0304 36.9229 28.795 36.9757 28.5569 37.0102C28.5502 37.0112 28.5436 37.0122 28.5369 37.0131C28.4689 37.0227 28.4008 37.0308 28.3325 37.0374C28.1271 37.0573 27.9202 37.0638 27.7133 37.0568ZM24.6037 37.9124C24.4535 37.7612 24.3167 37.5966 24.1949 37.4203C23.9227 37.0263 23.7315 36.582 23.6324 36.1133C23.5348 35.6515 23.5286 35.175 23.6142 34.7109C23.7471 33.9407 23.9051 33.1764 24.0881 32.4178M24.6037 37.9124C24.2195 37.9668 23.8317 37.9962 23.4427 38L23.4242 38.0002L23.4056 38.0008C22.9647 38.0133 22.5269 37.9244 22.1259 37.7409C21.7265 37.5581 21.3743 37.2863 21.0962 36.9463C20.8491 36.6383 20.6998 36.2633 20.6676 35.8696L20.667 35.8625L20.6664 35.8553C20.5994 35.1041 20.6737 34.347 20.8855 33.6231L20.8927 33.5985L20.8992 33.5737C21.3061 32.0376 21.6995 30.4987 22.0903 28.9698C22.1131 28.8808 22.1358 28.7919 22.1586 28.7029C22.4713 27.4798 22.7868 26.2433 23.0873 25.0006C23.2262 24.4482 23.3352 23.8887 23.4138 23.3246C23.5012 22.8508 23.4931 22.364 23.3896 21.8928C23.2803 21.395 23.0671 20.9258 22.7638 20.516C22.6616 20.378 22.55 20.2477 22.4299 20.1261C22.9915 20.0343 23.5637 20.019 24.1308 20.0813C24.6252 20.1401 25.0923 20.34 25.4762 20.6572C25.8478 20.9642 26.1262 21.3684 26.2806 21.8242C26.4376 22.4764 26.4343 23.1573 26.2705 23.8084L26.2683 23.817L26.2662 23.8256C25.9833 24.9945 25.6856 26.1525 25.3838 27.3264C25.2616 27.8017 25.1388 28.2796 25.016 28.7618L25.016 28.7619C24.9237 29.1244 24.8286 29.4926 24.7327 29.8644C24.5156 30.7057 24.2938 31.5652 24.0881 32.4178" fill="black"/>
<path fill-rule="evenodd" clip-rule="evenodd" d="M27.3678 14.2668C28.546 14.2668 29.5012 13.3117 29.5012 12.1334C29.5012 10.9552 28.546 10 27.3678 10C26.1895 10 25.2344 10.9552 25.2344 12.1334C25.2344 13.3117 26.1895 14.2668 27.3678 14.2668ZM31.5012 12.1334C31.5012 14.4162 29.6506 16.2668 27.3678 16.2668C25.085 16.2668 23.2344 14.4162 23.2344 12.1334C23.2344 9.85059 25.085 8 27.3678 8C29.6506 8 31.5012 9.85059 31.5012 12.1334Z" fill="black"/>
<path fill-rule="evenodd" clip-rule="evenodd" d="M24 46C36.1503 46 46 36.1503 46 24C46 11.8497 36.1503 2 24 2C11.8497 2 2 11.8497 2 24C2 36.1503 11.8497 46 24 46ZM24 48C37.2548 48 48 37.2548 48 24C48 10.7452 37.2548 0 24 0C10.7452 0 0 10.7452 0 24C0 37.2548 10.7452 48 24 48Z" fill="black"/>
</svg>
