<svg width="36" height="36" viewBox="0 0 36 36" fill="none" xmlns="http://www.w3.org/2000/svg">
<path d="M12.0794 0.970389C9.42343 1.83175 7.01523 3.32273 5.06017 5.31614C3.1051 7.30955 1.66119 9.74627 0.851571 12.4184C0.118209 14.7352 -0.145458 17.175 0.0760125 19.595C0.297483 22.015 0.999641 24.3664 2.14135 26.5116C2.32404 26.8444 2.3913 27.2283 2.33263 27.6034L0.53701 34.0835C0.483982 34.2749 0.482652 34.4769 0.533159 34.6689C0.583666 34.8609 0.684201 35.0361 0.82451 35.1766C0.964819 35.3171 1.13988 35.4179 1.33184 35.4686C1.5238 35.5194 1.72579 35.5183 1.91721 35.4656L8.41109 33.6754C8.78648 33.6171 9.1706 33.6845 9.50379 33.8669C11.6481 35.0054 13.9979 35.7051 16.4157 35.9249C18.8335 36.1448 21.271 35.8805 23.5855 35.1474C26.2566 34.3375 28.6923 32.8938 30.6849 30.9392C32.6775 28.9847 34.1679 26.5772 35.0291 23.9222C36.1219 20.7237 36.2961 17.2829 35.5319 13.9904C34.7678 10.6978 33.0958 7.68552 30.7058 5.29536C28.3159 2.9052 25.3037 1.23295 22.0113 0.468461C18.7188 -0.296029 15.278 -0.122141 12.0794 0.970389ZM33.1262 23.3136C32.3697 25.6635 31.0533 27.7943 29.2906 29.5226C27.5278 31.2509 25.3714 32.5248 23.007 33.2348C20.9432 33.8866 18.7706 34.1226 16.615 33.929C14.4594 33.7354 12.3636 33.1161 10.4489 32.107C9.90137 31.8126 9.28964 31.658 8.668 31.6568C8.47471 31.6566 8.28172 31.6721 8.09094 31.7031L2.87501 33.1289L4.2579 28.1369L4.30424 27.9262C4.43214 27.1165 4.29058 26.2872 3.90133 25.5658C2.88884 23.6504 2.26695 21.5529 2.07176 19.3952C1.87657 17.2374 2.11197 15.0624 2.76429 12.9964C3.47405 10.6311 4.74822 8.47369 6.47706 6.71019C8.20589 4.94668 10.3375 3.62992 12.6884 2.87335C15.5374 1.89279 18.6047 1.73242 21.5405 2.41052C24.4763 3.08861 27.1625 4.5779 29.293 6.7086C31.4234 8.83931 32.9124 11.5257 33.5901 14.4616C34.2679 17.3975 34.1071 20.4647 33.1262 23.3137L33.1262 23.3136Z" fill="black"/>
</svg>
